<svg width="16" height="16" viewBox="0 0 16 16" fill="none" xmlns="http://www.w3.org/2000/svg">
<path d="M7.94922 14.85C4.46172 14.85 0.699219 12.6625 0.699219 7.8625C0.699219 3.0625 4.46172 0.875 7.94922 0.875C9.88672 0.875 11.6742 1.5125 12.9992 2.675C14.4367 3.95 15.1992 5.75 15.1992 7.8625C15.1992 9.975 14.4367 11.7625 12.9992 13.0375C11.6742 14.2 9.87422 14.85 7.94922 14.85Z" fill="url(#paint0_radial_2777_1774)"/>
<path d="M13.9365 3.70874C14.6027 4.78374 14.9502 6.06374 14.9502 7.48749C14.9502 9.59999 14.1877 11.3875 12.7502 12.6625C11.4252 13.825 9.62523 14.475 7.70023 14.475C5.44273 14.475 3.07523 13.5562 1.67773 11.6075C3.02273 13.815 5.55273 14.85 7.95023 14.85C9.87523 14.85 11.6752 14.2 13.0002 13.0375C14.4377 11.7625 15.2002 9.97499 15.2002 7.86249C15.2002 6.26999 14.7665 4.85499 13.9365 3.70874Z" fill="#EB8F00"/>
<path d="M9.21395 9.24999C9.17918 9.1955 9.15752 9.13369 9.15069 9.06942C9.14385 9.00515 9.15202 8.94016 9.17456 8.87959C9.19709 8.81901 9.23338 8.76448 9.28056 8.7203C9.32774 8.67612 9.38452 8.6435 9.44645 8.62499C9.86895 8.45874 10.319 8.36874 10.7727 8.35999C11.2265 8.36749 11.6765 8.45249 12.1027 8.60999C12.1565 8.62537 12.2068 8.65125 12.2506 8.68612C12.2944 8.721 12.3309 8.76418 12.358 8.8132C12.385 8.86222 12.4021 8.9161 12.4083 8.97175C12.4145 9.0274 12.4096 9.08373 12.394 9.13749C12.384 9.17124 12.3702 9.20499 12.3527 9.23499C12.2908 9.32721 12.1999 9.39618 12.0944 9.43104C11.989 9.4659 11.8749 9.46465 11.7702 9.42749C11.4565 9.30749 11.1252 9.23999 10.789 9.22749C10.4515 9.23874 10.1177 9.30624 9.8027 9.42749C9.58895 9.51499 9.34395 9.44124 9.21395 9.24999ZM3.63895 9.24999C3.60953 9.20348 3.58959 9.15163 3.58026 9.0974C3.57094 9.04317 3.57242 8.98763 3.58461 8.93397C3.59681 8.88031 3.61948 8.82959 3.65133 8.78472C3.68318 8.73985 3.72357 8.7017 3.7702 8.67249C3.8027 8.65249 3.8377 8.63624 3.8752 8.62499C4.29827 8.45791 4.74791 8.36815 5.2027 8.35999C5.65645 8.36749 6.10645 8.45249 6.53145 8.60999C6.7577 8.67624 6.8877 8.91374 6.8227 9.13999C6.8127 9.17374 6.79895 9.20499 6.78145 9.23499C6.71951 9.32752 6.62843 9.39672 6.52267 9.4316C6.41692 9.46647 6.30254 9.46502 6.1977 9.42749C5.88395 9.30749 5.5527 9.23999 5.21645 9.22749C4.87895 9.23874 4.5452 9.30624 4.2302 9.42749C4.01645 9.51624 3.76895 9.44249 3.63895 9.24999ZM8.0002 10.9C9.3502 10.9 10.2252 11.8875 10.4627 12.35C10.5502 12.525 10.5502 12.675 10.4752 12.7375C10.3952 12.7875 10.2927 12.7875 10.2127 12.7375C10.1727 12.7212 10.1352 12.7 10.1002 12.675C9.48767 12.2351 8.75429 11.995 8.0002 11.9875C7.24895 11.9975 6.51645 12.2325 5.9002 12.6625C5.8652 12.6875 5.8277 12.7087 5.7877 12.725C5.7077 12.775 5.6052 12.775 5.5252 12.725C5.4502 12.65 5.4502 12.5125 5.5377 12.3375C5.7752 11.8875 6.6502 10.9 8.0002 10.9Z" fill="#422B0D"/>
<path d="M3.70703 7.06496C2.64828 7.06496 1.83203 6.03996 1.83203 5.16121C1.83203 4.54246 2.10828 3.82621 2.49828 2.83371C2.54703 2.68746 2.61203 2.54121 2.67703 2.37746C2.86328 1.91246 3.02828 1.40871 3.27828 0.972459C3.31641 0.904157 3.37208 0.84727 3.43954 0.80767C3.507 0.76807 3.58381 0.747192 3.66203 0.747192C3.74025 0.747192 3.81706 0.76807 3.88452 0.80767C3.95198 0.84727 4.00765 0.904157 4.04578 0.972459C4.27828 1.40121 4.43703 1.86496 4.67953 2.40621C5.36328 3.93621 5.55453 4.55496 5.55453 5.17371C5.57828 6.03996 4.74953 7.06496 3.70703 7.06496Z" fill="#44B3E6"/>
<path d="M4.85156 5.89124C4.61281 6.26624 4.07031 6.19124 4.07031 5.57749C4.07031 5.18499 4.15031 3.17124 4.48656 3.45249C5.03531 3.91124 5.19156 5.37499 4.85156 5.89124Z" fill="#81D4FA"/>
<defs>
<radialGradient id="paint0_radial_2777_1774" cx="0" cy="0" r="1" gradientUnits="userSpaceOnUse" gradientTransform="translate(7.94922 7.8625) scale(7.12)">
<stop offset="0.5" stop-color="#FDE030"/>
<stop offset="0.92" stop-color="#F7C02B"/>
<stop offset="1" stop-color="#F4A223"/>
</radialGradient>
</defs>
</svg>
