<svg width="16" height="17" viewBox="0 0 16 17" fill="none" xmlns="http://www.w3.org/2000/svg">
<path d="M0.93069 16.3717C1.21444 16.6985 2.38319 16.1287 3.30569 15.6718C3.99694 15.3305 6.76319 14.1246 8.13819 13.499C8.50944 13.3303 9.04944 13.1099 9.43819 12.5667C9.78319 12.0832 10.6982 10.0299 8.85569 7.9501C6.98569 5.83839 5.05944 6.42143 4.33944 6.96331C3.91569 7.28206 3.57069 8.00057 3.41569 8.36581C2.76069 9.90909 1.82694 12.7367 1.44694 13.8483C1.16819 14.6678 0.64944 16.0477 0.93069 16.3717Z" fill="#FFC107"/>
<path d="M3.2307 8.83069C3.2482 9.06178 3.29195 9.43764 3.44195 10.1615C3.54445 10.6582 3.71195 11.1788 3.8482 11.5228C4.25695 12.5574 4.8307 12.9744 5.41195 13.3091C6.39945 13.8776 7.0707 13.9838 7.0707 13.9838L6.2657 14.3331C6.2657 14.3331 5.7782 14.2255 5.1132 13.8776C4.47945 13.5455 3.81945 12.9837 3.33695 11.884C3.1282 11.4073 3.00695 10.9451 2.93695 10.5785C2.8507 10.1243 2.83695 9.86663 2.83695 9.86663L3.2307 8.83069ZM2.24195 11.5241C2.24195 11.5241 2.34195 12.3861 3.01195 13.4738C3.79695 14.7462 4.8932 14.9547 4.8932 14.9547L4.16445 15.2734C4.16445 15.2734 3.3507 15.0091 2.57695 13.8869C2.09445 13.1869 1.95945 12.3502 1.95945 12.3502L2.24195 11.5241ZM1.5482 13.5668C1.5482 13.5668 1.7307 14.3105 2.1307 14.8657C2.60695 15.5284 3.2132 15.721 3.2132 15.721L2.65445 15.984C2.65445 15.984 2.2307 15.8897 1.76695 15.2655C1.41445 14.7913 1.31445 14.2468 1.31445 14.2468L1.5482 13.5668Z" fill="#FF8F00"/>
<path opacity="0.44" d="M1.24516 15.4554C1.22016 15.3956 1.22016 15.3279 1.24641 15.2694L4.43016 8.25427L4.95391 10.3461L1.60391 15.4872C1.51391 15.6307 1.31141 15.6121 1.24516 15.4554Z" fill="#FFFDE7"/>
<path d="M5.20546 11.0486C6.69296 12.8974 8.38671 12.6663 8.95046 12.1988C9.51546 11.73 9.96171 10.119 8.48046 8.30076C6.92796 6.39623 5.17046 6.93943 4.76421 7.35115C4.35796 7.76287 3.84046 9.35263 5.20546 11.0486Z" fill="url(#paint0_linear_2777_1741)"/>
<path d="M10.3147 11.8097C9.77219 11.3263 9.48344 11.4126 9.09594 11.5839C8.59594 11.8044 7.80969 11.9677 6.74219 11.5839L7.06344 10.7618C7.69719 10.9889 8.15594 10.8787 8.55219 10.6303C9.06219 10.3116 9.75969 9.87462 10.8447 10.8428C11.2972 11.2466 11.7609 11.5149 12.1009 11.3927C12.3484 11.305 12.4797 10.9132 12.5459 10.6011C12.5522 10.5732 12.5622 10.4935 12.5697 10.4231C12.6297 9.93572 12.7297 8.88384 13.4672 8.34595C14.2559 7.77087 15.0847 7.77087 15.0847 7.77087L15.2347 9.354C14.8534 9.29423 14.5884 9.37658 14.3647 9.50806C13.5222 10.0061 14.2559 11.9186 12.9447 12.5614C11.6834 13.1843 10.6522 12.1099 10.3147 11.8097Z" fill="#03A9F4"/>
<path d="M5.67564 9.79094L5.13314 9.2743C6.12939 8.09227 5.86689 7.22367 5.67564 6.59148C5.63689 6.46398 5.60064 6.34312 5.57689 6.22758C5.49189 5.81852 5.47439 5.46258 5.50064 5.1518C5.11814 4.64578 4.94939 4.11586 4.93814 4.08C4.70564 3.33227 4.88064 2.60313 5.28189 1.91914C6.09314 0.53125 7.56189 0.53125 7.56189 0.53125L8.05189 1.92445C7.67939 1.90852 6.45814 1.92844 6.08314 2.55664C5.60939 3.3482 5.92064 3.83695 5.94314 3.89273C6.03439 3.76656 6.12689 3.66563 6.20939 3.58727C6.80814 3.02281 7.32814 2.9418 7.65939 2.97367C8.03189 3.00953 8.36939 3.20875 8.61064 3.53547C8.87439 3.89406 8.98314 4.36023 8.89939 4.78391C8.81814 5.19695 8.55939 5.54625 8.17064 5.76805C7.49189 6.15586 6.92689 6.10273 6.54814 5.96859C6.55064 5.97789 6.55189 5.98852 6.55439 5.99781C6.56814 6.06422 6.59564 6.15719 6.62814 6.26477C6.84939 6.99258 7.26064 8.14805 5.67564 9.79094ZM6.59439 4.80648C6.66689 4.86227 6.74314 4.90875 6.82189 4.94195C7.08439 5.05352 7.37064 5.01633 7.69564 4.83039C7.88689 4.72148 7.90939 4.60461 7.91689 4.56609C7.93939 4.45055 7.90189 4.30312 7.82064 4.19289C7.74939 4.09594 7.66689 4.04547 7.56814 4.03484C7.38064 4.01758 7.12689 4.14375 6.87314 4.38414C6.75189 4.49969 6.65939 4.6418 6.59439 4.80648Z" fill="#F44336"/>
<path d="M7.84656 10.0075L7.07031 9.98488C7.07031 9.98488 7.43906 7.77223 8.63281 7.40035C8.85656 7.33129 9.10156 7.2609 9.34781 7.22238C9.49406 7.19848 9.72531 7.16262 9.83906 7.11746C9.86531 6.90895 9.78281 6.64332 9.69031 6.34184C9.61781 6.10809 9.54281 5.8677 9.50281 5.60473C9.42531 5.09207 9.55406 4.63918 9.86531 4.32707C10.2453 3.94855 10.8591 3.8277 11.5516 3.99504C11.9466 4.09066 12.2378 4.29652 12.4941 4.47715C12.8603 4.73613 13.0741 4.86762 13.5216 4.54754C14.0628 4.15973 13.3553 2.64168 12.9791 1.76512L14.3828 1.14355C14.5716 1.58184 15.4828 3.83699 14.8816 5.12395C14.6791 5.55691 14.3303 5.84379 13.8728 5.95137C12.8778 6.18777 12.2953 5.77605 11.8703 5.4759C11.6691 5.33379 11.4928 5.22223 11.3016 5.16379C9.97281 4.76137 11.8278 6.83855 10.9591 7.77223C10.4378 8.33137 9.16406 8.47879 9.08156 8.50004C8.26156 8.70988 7.84656 10.0075 7.84656 10.0075Z" fill="#F48FB1"/>
<path d="M5.49861 5.15186C5.47486 5.44404 5.46361 5.61803 5.53486 5.99787C5.87861 6.26615 6.62736 6.26615 6.62736 6.26615C6.59486 6.15857 6.56611 6.06561 6.55361 5.9992C6.55111 5.9899 6.54986 5.97928 6.54736 5.96998C5.78611 5.56623 5.49861 5.15186 5.49861 5.15186Z" fill="#C92B27"/>
<path d="M3.94094 6.45995L2.64844 5.78659L3.29219 4.79846L4.30594 5.51166L3.94094 6.45995Z" fill="#FFC107"/>
<path d="M2.03711 4.59528C1.37711 4.50098 0.704609 3.90598 0.630859 3.83825L1.27961 3.02942C1.47586 3.20606 1.89211 3.50223 2.17086 3.54208L2.03711 4.59528Z" fill="#FB8C00"/>
<path d="M3.20195 2.82486L2.25195 2.49416C2.3607 2.14088 2.38945 1.75971 2.3332 1.39182L3.3207 1.22314C3.40195 1.75705 3.3607 2.31088 3.20195 2.82486Z" fill="#03A9F4"/>
<path d="M9.13477 2.03534L10.1116 1.80823L10.3938 3.17832L9.41689 3.40543L9.13477 2.03534Z" fill="#FB8C00"/>
<path d="M11.5566 2.36013L10.8691 1.58849C11.2291 1.22591 11.3116 0.751772 11.3116 0.74646L12.2991 0.917788C12.2866 1.00146 12.1604 1.75318 11.5566 2.36013Z" fill="#FFC107"/>
<path d="M11.9395 6.45205L12.8128 6.16199L13.1111 7.17614L12.2377 7.46621L11.9395 6.45205Z" fill="#FB8C00"/>
<path d="M12.1937 15.0118L11.2 14.8869C11.2425 14.511 10.9787 14.0502 10.9062 13.9479L11.7062 13.3104C11.7662 13.3941 12.2875 14.1604 12.1937 15.0118Z" fill="#F44336"/>
<path d="M15.0464 13.6651C14.6727 13.6053 14.2902 13.5814 13.9127 13.596L13.8789 12.5335C14.3177 12.5176 14.7614 12.5442 15.1952 12.6145L15.0464 13.6651Z" fill="#FB8C00"/>
<path d="M13.7012 15.1276L14.4037 14.3715L15.3705 15.3859L14.668 16.1419L13.7012 15.1276Z" fill="#F48FB1"/>
<path d="M11.6386 8.4115L12.3611 9.28926L11.535 10.0569L10.8125 9.17916L11.6386 8.4115Z" fill="#F44336"/>
<defs>
<linearGradient id="paint0_linear_2777_1741" x1="9.29721" y1="8.21297" x2="5.46037" y2="10.3796" gradientUnits="userSpaceOnUse">
<stop offset="0.024" stop-color="#8F4700"/>
<stop offset="1" stop-color="#703E2D"/>
</linearGradient>
</defs>
</svg>
