<svg width="16" height="16" viewBox="0 0 16 16" fill="none" xmlns="http://www.w3.org/2000/svg">
<path d="M15.8848 1.02081C15.8848 0.510938 15.4676 0.09375 14.9577 0.09375H0.906609C0.447734 0.09375 0.0722656 0.469219 0.0722656 0.928094V15.0719C0.0722656 15.5308 0.447734 15.9062 0.906609 15.9062H14.9577C15.4676 15.9062 15.8848 15.4891 15.8848 14.9792V1.02081Z" fill="#597B91"/>
<path d="M14.9577 15.2786H0.906609C0.447734 15.2786 0.0722656 14.9032 0.0722656 14.4443V15.0719C0.0722656 15.5308 0.447734 15.9063 0.906609 15.9063H14.9577C15.4676 15.9063 15.8848 15.4891 15.8848 14.9792V14.3516C15.8848 14.8614 15.4676 15.2786 14.9577 15.2786Z" fill="#2B5770"/>
<path d="M8.00658 4.92377C8.68476 4.92377 9.15708 4.45146 9.15708 3.83383C9.15708 3.21621 8.68476 2.7439 8.00658 2.7439C7.34052 2.7439 6.8682 3.21621 6.8682 3.83383C6.8682 4.45149 7.34052 4.92377 8.00658 4.92377ZM9.34033 12.0039C9.14548 12.0039 8.98755 11.8459 8.98755 11.6511V6.13483L8.98695 6.13511V6.0803C8.98695 5.79758 8.67148 5.62993 8.43702 5.78783C7.93036 6.12905 7.07817 6.55986 5.89533 6.6293C5.70936 6.64021 5.56445 6.79496 5.56445 6.98124V7.39986C5.56445 7.60258 5.73502 7.76311 5.93745 7.75227C6.17417 7.73961 6.41006 7.71472 6.6442 7.67768C6.85748 7.64393 7.04989 7.81049 7.04989 8.02643V11.6511C7.04989 11.8459 6.89195 12.0038 6.69711 12.0038H6.60452C6.40967 12.0038 6.25173 12.1618 6.25173 12.3566V12.7743C6.25173 12.9692 6.40967 13.1271 6.60452 13.1271H9.38614C9.58098 13.1271 9.73892 12.9692 9.73892 12.7743V12.3566C9.73892 12.1618 9.58098 12.0038 9.38614 12.0038H9.34033V12.0039Z" fill="white"/>
</svg>
